<svg width="40" height="41" viewBox="0 0 40 41" fill="none" xmlns="http://www.w3.org/2000/svg">
<rect y="0.28125" width="40" height="40" rx="10" fill="#E5252C"/>
<path d="M15.5 20.2812C15.5 20.0823 15.579 19.8916 15.7197 19.7509C15.8603 19.6103 16.0511 19.5312 16.25 19.5312H23V14.6562C23 13.1562 21.4161 12.0312 20 12.0312H12.875C12.179 12.032 11.5118 12.3088 11.0197 12.8009C10.5275 13.293 10.2507 13.9603 10.25 14.6562V25.9062C10.2507 26.6022 10.5275 27.2695 11.0197 27.7616C11.5118 28.2537 12.179 28.5305 12.875 28.5312H20.375C21.071 28.5305 21.7382 28.2537 22.2303 27.7616C22.7225 27.2695 22.9993 26.6022 23 25.9062V21.0312H16.25C16.0511 21.0312 15.8603 20.9522 15.7197 20.8116C15.579 20.6709 15.5 20.4802 15.5 20.2812ZM29.5302 19.7511L25.7802 16.0011C25.6384 15.8664 25.4495 15.7924 25.254 15.7949C25.0584 15.7974 24.8715 15.8762 24.7332 16.0145C24.5949 16.1528 24.5161 16.3397 24.5136 16.5352C24.5111 16.7308 24.5851 16.9196 24.7198 17.0614L27.1892 19.5312H23V21.0312H27.1892L24.7198 23.5011C24.6473 23.57 24.5892 23.6528 24.5492 23.7446C24.5091 23.8363 24.4878 23.9351 24.4865 24.0352C24.4852 24.1353 24.504 24.2347 24.5417 24.3274C24.5794 24.4201 24.6353 24.5044 24.7061 24.5752C24.7769 24.6459 24.8611 24.7018 24.9539 24.7396C25.0466 24.7773 25.1459 24.796 25.246 24.7948C25.3461 24.7935 25.445 24.7722 25.5367 24.7321C25.6284 24.692 25.7112 24.634 25.7802 24.5614L29.5302 20.8114C29.6707 20.6708 29.7497 20.4801 29.7497 20.2812C29.7497 20.0824 29.6707 19.8917 29.5302 19.7511Z" fill="white"/>
</svg>
