<svg width="40" height="41" viewBox="0 0 40 41" fill="none" xmlns="http://www.w3.org/2000/svg">
<rect y="0.427917" width="40" height="40" rx="10" fill="#1A1F16"/>
<path d="M10.6666 28.9993H11.1666C11.2108 28.9993 11.2532 28.9805 11.2845 28.947C11.3157 28.9136 11.3333 28.8681 11.3333 28.8208V21.2096C11.3329 21.1812 11.3388 21.1531 11.3506 21.1277C11.3624 21.1022 11.3797 21.0801 11.4011 21.0633C11.4224 21.0464 11.4472 21.0353 11.4734 21.0308C11.4996 21.0262 11.5264 21.0285 11.5516 21.0373C11.934 21.166 12.331 21.2378 12.7316 21.2507C12.7808 21.2507 12.8275 21.2529 12.8733 21.2529C13.6438 21.2549 14.402 21.0452 15.0754 20.644C15.1264 20.6136 15.1837 20.5977 15.2421 20.5977C15.3004 20.5977 15.3578 20.6136 15.4087 20.644C16.082 21.0452 16.84 21.2549 17.6104 21.2529C18.3765 21.2541 19.1298 21.0419 19.7963 20.6373C19.8477 20.6061 19.9058 20.5897 19.9648 20.5897C20.0239 20.5897 20.082 20.6061 20.1334 20.6373C20.8099 21.0435 21.5729 21.2557 22.3484 21.2534C23.1196 21.2539 23.8776 21.0385 24.5472 20.6284C24.599 20.5968 24.6576 20.5802 24.7172 20.5802C24.7768 20.5802 24.8354 20.5968 24.8872 20.6284C25.5567 21.0385 26.3147 21.2539 27.086 21.2534C27.1314 21.2534 27.1772 21.2534 27.2264 21.2511H27.2289C27.6436 21.2378 28.0543 21.1613 28.4489 21.0239C28.4739 21.0152 28.5004 21.013 28.5263 21.0175C28.5523 21.0219 28.5769 21.0328 28.5981 21.0494C28.6194 21.0659 28.6366 21.0876 28.6486 21.1126C28.6605 21.1377 28.6668 21.1654 28.6668 21.1935V28.8208C28.6668 28.8681 28.6844 28.9136 28.7156 28.947C28.7469 28.9805 28.7893 28.9993 28.8335 28.9993H29.3126C29.6727 28.9993 29.9835 29.2958 29.9993 29.6815C30.0034 29.7779 29.9892 29.8742 29.9575 29.9645C29.9259 30.0549 29.8775 30.1374 29.8153 30.2072C29.7531 30.2769 29.6783 30.3324 29.5955 30.3704C29.5127 30.4083 29.4235 30.4279 29.3335 30.4279H10.6874C10.3274 30.4279 10.0166 30.1315 10.0008 29.7458C9.9967 29.6494 10.0109 29.5531 10.0426 29.4628C10.0742 29.3724 10.1226 29.2899 10.1848 29.2201C10.247 29.1504 10.3218 29.0948 10.4046 29.0569C10.4874 29.0189 10.5765 28.9994 10.6666 28.9993ZM21.3334 25.9636C21.3334 26.011 21.3509 26.0564 21.3822 26.0899C21.4135 26.1234 21.4559 26.1422 21.5001 26.1422H25.1668C25.211 26.1422 25.2534 26.1234 25.2846 26.0899C25.3159 26.0564 25.3334 26.011 25.3334 25.9636V23.1065C25.3334 22.9644 25.2808 22.8281 25.187 22.7277C25.0932 22.6272 24.966 22.5708 24.8334 22.5708H21.8334C21.7008 22.5708 21.5736 22.6272 21.4798 22.7277C21.3861 22.8281 21.3334 22.9644 21.3334 23.1065V25.9636ZM14.8333 28.9993H17.8333C17.8776 28.9993 17.9199 28.9805 17.9512 28.947C17.9825 28.9136 18 28.8681 18 28.8208V23.1065C18 22.9644 17.9473 22.8281 17.8536 22.7277C17.7598 22.6272 17.6326 22.5708 17.5 22.5708H15.1666C15.034 22.5708 14.9069 22.6272 14.8131 22.7277C14.7193 22.8281 14.6666 22.9644 14.6666 23.1065V28.8208C14.6666 28.8681 14.6842 28.9136 14.7155 28.947C14.7467 28.9805 14.7891 28.9993 14.8333 28.9993ZM10.1428 16.6011L11.9312 12.2043C12.3995 11.1252 13.4691 10.4279 14.6562 10.4279H25.3459C26.533 10.4279 27.6026 11.1252 28.071 12.2043L29.8593 16.6011C30.2343 17.4676 29.7389 18.3574 29.7385 18.3578L29.7268 18.3779C29.7064 18.4127 29.6702 18.4672 29.6481 18.502C29.646 18.5047 29.6443 18.5078 29.6422 18.511L29.4339 18.781C29.4261 18.7912 29.4178 18.8009 29.4089 18.8101L29.2006 19.0257L29.1831 19.0418C29.0607 19.1541 28.9298 19.2554 28.7918 19.3444V19.3467C28.3383 19.641 27.8217 19.805 27.2918 19.823H27.1889C26.3871 19.8246 25.6145 19.5006 25.0268 18.9163L25.013 18.9025C24.9516 18.8405 24.8705 18.806 24.7861 18.806C24.7018 18.806 24.6206 18.8405 24.5593 18.9025L24.5455 18.9163C23.9515 19.4996 23.175 19.8232 22.3692 19.8232C21.5635 19.8232 20.787 19.4996 20.193 18.9163C20.1313 18.8552 20.0505 18.8212 19.9665 18.8212C19.8825 18.8212 19.8017 18.8552 19.74 18.9163C19.1478 19.4978 18.3741 19.8212 17.5708 19.8231C16.7675 19.825 15.9925 19.5052 15.3979 18.9266C15.3372 18.8663 15.2575 18.8329 15.1748 18.8329C15.092 18.8329 15.0123 18.8663 14.9516 18.9266C14.3564 19.5088 13.578 19.8289 12.772 19.823H12.6683C12.1517 19.8023 11.649 19.6377 11.2099 19.3453C11.1704 19.3199 11.1324 19.2931 11.0941 19.2663C10.798 19.0524 10.5402 18.7831 10.3333 18.4712L10.2608 18.3538C10.2535 18.3419 10.2469 18.3294 10.2408 18.3163C10.1716 18.1654 9.80075 17.3895 10.1428 16.6011Z" fill="white"/>
</svg>
