<svg width="20" height="22" viewBox="0 0 20 22" fill="none" xmlns="http://www.w3.org/2000/svg">
<path d="M19.3117 7.36854C19.1727 7.22852 19.0073 7.11748 18.825 7.04184C18.6428 6.96621 18.4473 6.92748 18.25 6.92792H15.25V6.17792C15.25 4.78553 14.6969 3.45017 13.7123 2.46561C12.7277 1.48104 11.3924 0.927917 10 0.927917C8.60761 0.927917 7.27226 1.48104 6.28769 2.46561C5.30312 3.45017 4.75 4.78553 4.75 6.17792V6.92792H1.75C1.35218 6.92792 0.970644 7.08595 0.68934 7.36726C0.408035 7.64856 0.25 8.03009 0.25 8.42792V18.5529C0.25 20.381 1.79688 21.9279 3.625 21.9279H16.375C17.2593 21.9282 18.1086 21.5825 18.7413 20.9646C19.0596 20.6609 19.3132 20.2958 19.4865 19.8914C19.6599 19.4869 19.7495 19.0515 19.75 18.6115V8.42792C19.7506 8.23113 19.7122 8.03618 19.637 7.85433C19.5617 7.67249 19.4512 7.50738 19.3117 7.36854ZM6.25 6.17792C6.25 5.18336 6.64509 4.22953 7.34835 3.52627C8.05161 2.82301 9.00544 2.42792 10 2.42792C10.9946 2.42792 11.9484 2.82301 12.6517 3.52627C13.3549 4.22953 13.75 5.18336 13.75 6.17792V6.92792H6.25V6.17792ZM15.25 10.6779C15.25 12.0703 14.6969 13.4057 13.7123 14.3902C12.7277 15.3748 11.3924 15.9279 10 15.9279C8.60761 15.9279 7.27226 15.3748 6.28769 14.3902C5.30312 13.4057 4.75 12.0703 4.75 10.6779V9.92792C4.75 9.729 4.82902 9.53824 4.96967 9.39759C5.11032 9.25694 5.30109 9.17792 5.5 9.17792C5.69891 9.17792 5.88968 9.25694 6.03033 9.39759C6.17098 9.53824 6.25 9.729 6.25 9.92792V10.6779C6.25 11.6725 6.64509 12.6263 7.34835 13.3296C8.05161 14.0328 9.00544 14.4279 10 14.4279C10.9946 14.4279 11.9484 14.0328 12.6517 13.3296C13.3549 12.6263 13.75 11.6725 13.75 10.6779V9.92792C13.75 9.729 13.829 9.53824 13.9697 9.39759C14.1103 9.25694 14.3011 9.17792 14.5 9.17792C14.6989 9.17792 14.8897 9.25694 15.0303 9.39759C15.171 9.53824 15.25 9.729 15.25 9.92792V10.6779Z" fill="#1A1F16"/>
</svg>
